# xmcd CD database file
#
# Track frame offsets:
#	150
#	18735
#	37135
#	50600
#	61597
#	74822
#	85710
#	99675
#	113285
#	127470
#	139740
#	154660
#
# Disc length: 2277 seconds
#
# Revision: 0
# Processed by: cddbd v1.4PL0 Copyright (c) Steve Scherf et al.
# Submitted via: CDex 1.50beta8
#
DISCID=ab08e30c
DTITLE=Hiroshi Okazaki - Neo Standard (living jazz)
DYEAR=2003
DGENRE=Jazz
TTITLE0=Spinning Wheel
TTITLE1=Raindrops Keep Fallin' On My Head
TTITLE2=Here, There And Everywhere
TTITLE3=By The Time I Get To Phoenix
TTITLE4=You've Made Me So Very Happy
TTITLE5=Maybe September
TTITLE6=I'll Never Fall In Love Again
TTITLE7=Girl Talk
TTITLE8=Traces
TTITLE9=Something
TTITLE10=Yesterday I Heard The Rain
TTITLE11=Didn't We
EXTD=YEAR: 2003
EXTT0=
EXTT1=
EXTT2=
EXTT3=
EXTT4=
EXTT5=
EXTT6=
EXTT7=
EXTT8=
EXTT9=
EXTT10=
EXTT11=
PLAYORDER=
